<svg width="35" height="35" viewBox="0 0 35 35" fill="none" xmlns="http://www.w3.org/2000/svg">
<rect x="1" y="1" width="33" height="33" rx="5" fill="#DBA833"/>
<path d="M30.6049 6.06163C30.1399 5.66731 29.4096 5.61089 28.6544 5.91407H28.6532C27.859 6.23275 6.17136 15.5352 5.28848 15.9153C5.1279 15.9711 3.72546 16.4944 3.86992 17.66C3.99888 18.7109 5.12604 19.1461 5.26368 19.1963L10.7773 21.0842C11.1431 22.3019 12.4916 26.7944 12.7899 27.7542C12.9759 28.3525 13.279 29.1387 13.8104 29.3005C14.2766 29.4803 14.7404 29.316 15.0405 29.0804L18.4114 25.9537L23.8531 30.1976L23.9827 30.2751C24.3522 30.4388 24.7063 30.5206 25.0442 30.5206C25.3052 30.5206 25.5557 30.4717 25.795 30.3737C26.6103 30.0389 26.9364 29.262 26.9705 29.174L31.0352 8.04625C31.2832 6.91785 30.9385 6.34373 30.6049 6.06163ZM15.64 21.8394L13.78 26.7994L11.92 20.5994L26.18 10.0594L15.64 21.8394Z" fill="black"/>
<rect x="1" y="1" width="33" height="33" rx="5" stroke="black" stroke-width="2"/>
</svg>
