<svg width="37" height="37" viewBox="0 0 37 37" fill="none" xmlns="http://www.w3.org/2000/svg">
<rect x="1" y="1" width="35" height="35" rx="5" fill="#DBA833"/>
<path d="M29.06 4.63965H7.94001C6.11841 4.63965 4.64001 6.11805 4.64001 7.93965V29.0596C4.64001 30.8812 6.11841 32.3596 7.94001 32.3596H29.06C30.8816 32.3596 32.36 30.8812 32.36 29.0596V7.93965C32.36 6.11805 30.8816 4.63965 29.06 4.63965ZM26.8952 23.7796L24.4334 23.773C24.4334 23.773 24.3806 23.7796 24.2948 23.7796C24.0968 23.7796 23.6876 23.7268 23.2058 23.3968C22.3412 22.7962 21.5162 21.3046 20.8628 21.3046C20.8166 21.3046 20.777 21.3112 20.7374 21.3244C20.1698 21.5026 19.9982 22.0702 19.9982 22.7632C19.9982 23.0074 19.8266 23.1196 19.3646 23.1196H18.0908C16.6652 23.1196 15.2858 23.0866 13.7348 21.3904C11.4512 18.889 9.31281 14.4406 9.31281 14.4406C9.31281 14.4406 9.19401 14.1832 9.31941 14.0314C9.43821 13.8928 9.71541 13.8796 9.82101 13.8796C9.84741 13.8796 9.86061 13.8796 9.86061 13.8796H12.5006C12.5006 13.8796 12.7448 13.9258 12.923 14.0578C13.0748 14.17 13.154 14.3746 13.154 14.3746C13.154 14.3746 13.6028 15.2458 14.1638 16.2292C15.1076 17.8528 15.6158 18.394 15.9788 18.394C16.0382 18.394 16.0976 18.3808 16.157 18.3478C16.6982 18.0508 16.5398 15.6484 16.5398 15.6484C16.5398 15.6484 16.5464 14.7772 16.2626 14.3944C16.0448 14.0908 15.629 14.005 15.4442 13.9786C15.299 13.9588 15.5366 13.6156 15.8534 13.4572C16.2626 13.2592 16.9424 13.2196 17.7608 13.2196H18.1568C18.929 13.2328 18.9488 13.312 19.2524 13.3846C20.1632 13.6024 19.853 14.4538 19.853 16.4932C19.853 17.1466 19.7342 18.064 20.2028 18.3742C20.2358 18.394 20.282 18.4072 20.3414 18.4072C20.645 18.4072 21.2984 18.0178 22.3412 16.2556C22.922 15.2524 23.3708 14.2558 23.3708 14.2558C23.3708 14.2558 23.4698 14.0776 23.6216 13.9852C23.7668 13.8994 23.7668 13.8994 23.9582 13.8994H23.978C24.1892 13.8994 26.288 13.8796 26.75 13.8796H26.8028C27.245 13.8796 27.6476 13.8862 27.7202 14.1568C27.8258 14.566 27.3968 15.2986 26.2682 16.8166C24.407 19.3048 24.1958 19.12 25.7402 20.5588C27.2186 21.9316 27.5222 22.5982 27.575 22.684C28.1888 23.7004 26.8952 23.7796 26.8952 23.7796Z" fill="black"/>
<rect x="1" y="1" width="35" height="35" rx="5" stroke="black" stroke-width="2"/>
</svg>
