<svg width="37" height="37" viewBox="0 0 37 37" fill="none" xmlns="http://www.w3.org/2000/svg">
<rect x="1" y="1" width="35" height="35" rx="5" fill="#DBA833"/>
<path d="M21.3286 21.3282C19.0239 23.7063 18.8562 26.6711 18.6572 33.1663C24.7124 33.1663 28.8924 33.1454 31.0505 31.0502C33.1458 28.8921 33.1667 24.513 33.1667 18.6568C26.6715 18.8663 23.7067 19.0235 21.3286 21.3282ZM3.83337 18.6568C3.83337 24.513 3.85433 28.8921 5.94956 31.0502C8.10766 33.1454 12.2877 33.1663 18.3429 33.1663C18.1334 26.6711 17.9762 23.7063 15.6715 21.3282C13.2934 19.0235 10.3286 18.8559 3.83337 18.6568ZM18.3429 3.83301C12.2981 3.83301 8.10766 3.85396 5.94956 5.9492C3.85433 8.10729 3.83337 12.4863 3.83337 18.3425C10.3286 18.133 13.2934 17.9759 15.6715 15.6711C17.9762 13.293 18.1439 10.3282 18.3429 3.83301ZM21.3286 15.6711C19.0239 13.293 18.8562 10.3282 18.6572 3.83301C24.7124 3.83301 28.8924 3.85396 31.0505 5.9492C33.1458 8.10729 33.1667 12.4863 33.1667 18.3425C26.6715 18.133 23.7067 17.9759 21.3286 15.6711Z" fill="black"/>
<path d="M33.1667 18.6568V18.3425C26.6715 18.133 23.7067 17.9759 21.3286 15.6711C19.0239 13.293 18.8562 10.3282 18.6572 3.83301H18.3429C18.1334 10.3282 17.9762 13.293 15.6715 15.6711C13.2934 17.9759 10.3286 18.1435 3.83337 18.3425V18.6568C10.3286 18.8663 13.2934 19.0235 15.6715 21.3282C17.9762 23.7063 18.1439 26.6711 18.3429 33.1663H18.6572C18.8667 26.6711 19.0239 23.7063 21.3286 21.3282C23.7067 19.0235 26.6715 18.8559 33.1667 18.6568Z" fill="#DBA833"/>
<rect x="1" y="1" width="35" height="35" rx="5" stroke="black" stroke-width="2"/>
</svg>
