<svg width="36" height="403" viewBox="0 0 36 403" fill="none" xmlns="http://www.w3.org/2000/svg">
<path d="M19.5 3C19.5 2.17157 18.8284 1.5 18 1.5C17.1716 1.5 16.5 2.17157 16.5 3L19.5 3ZM18 403L26.6603 388L9.33977 388L18 403ZM16.5 13C16.5 13.8284 17.1716 14.5 18 14.5C18.8284 14.5 19.5 13.8284 19.5 13L16.5 13ZM19.5 33C19.5 32.1716 18.8284 31.5 18 31.5C17.1716 31.5 16.5 32.1716 16.5 33L19.5 33ZM16.5 53C16.5 53.8284 17.1716 54.5 18 54.5C18.8284 54.5 19.5 53.8284 19.5 53L16.5 53ZM19.5 73C19.5 72.1716 18.8284 71.5 18 71.5C17.1716 71.5 16.5 72.1716 16.5 73L19.5 73ZM16.5 93C16.5 93.8284 17.1716 94.5 18 94.5C18.8284 94.5 19.5 93.8284 19.5 93L16.5 93ZM19.5 113C19.5 112.172 18.8284 111.5 18 111.5C17.1716 111.5 16.5 112.172 16.5 113L19.5 113ZM16.5 133C16.5 133.828 17.1716 134.5 18 134.5C18.8284 134.5 19.5 133.828 19.5 133L16.5 133ZM19.5 153C19.5 152.172 18.8284 151.5 18 151.5C17.1716 151.5 16.5 152.172 16.5 153L19.5 153ZM16.5 173C16.5 173.828 17.1716 174.5 18 174.5C18.8284 174.5 19.5 173.828 19.5 173L16.5 173ZM19.5 193C19.5 192.172 18.8284 191.5 18 191.5C17.1716 191.5 16.5 192.172 16.5 193L19.5 193ZM16.5 213C16.5 213.828 17.1716 214.5 18 214.5C18.8284 214.5 19.5 213.828 19.5 213L16.5 213ZM19.5 233C19.5 232.172 18.8284 231.5 18 231.5C17.1716 231.5 16.5 232.172 16.5 233L19.5 233ZM16.5 253C16.5 253.828 17.1716 254.5 18 254.5C18.8284 254.5 19.5 253.828 19.5 253L16.5 253ZM19.5 273C19.5 272.172 18.8284 271.5 18 271.5C17.1716 271.5 16.5 272.172 16.5 273L19.5 273ZM16.5 293C16.5 293.828 17.1716 294.5 18 294.5C18.8284 294.5 19.5 293.828 19.5 293L16.5 293ZM19.5 313C19.5 312.172 18.8284 311.5 18 311.5C17.1716 311.5 16.5 312.172 16.5 313L19.5 313ZM16.5 333C16.5 333.828 17.1716 334.5 18 334.5C18.8284 334.5 19.5 333.828 19.5 333L16.5 333ZM19.5 353C19.5 352.172 18.8284 351.5 18 351.5C17.1716 351.5 16.5 352.172 16.5 353L19.5 353ZM16.5 373C16.5 373.828 17.1716 374.5 18 374.5C18.8285 374.5 19.5 373.828 19.5 373L16.5 373ZM19.5 393C19.5 392.172 18.8285 391.5 18 391.5C17.1716 391.5 16.5 392.172 16.5 393L19.5 393ZM16.5 3L16.5 13L19.5 13L19.5 3L16.5 3ZM16.5 33L16.5 53L19.5 53L19.5 33L16.5 33ZM16.5 73L16.5 93L19.5 93L19.5 73L16.5 73ZM16.5 113L16.5 133L19.5 133L19.5 113L16.5 113ZM16.5 153L16.5 173L19.5 173L19.5 153L16.5 153ZM16.5 193L16.5 213L19.5 213L19.5 193L16.5 193ZM16.5 233L16.5 253L19.5 253L19.5 233L16.5 233ZM16.5 273L16.5 293L19.5 293L19.5 273L16.5 273ZM16.5 313L16.5 333L19.5 333L19.5 313L16.5 313ZM16.5 353L16.5 373L19.5 373L19.5 353L16.5 353ZM21 3C21 1.34315 19.6569 -4.82823e-08 18 0C16.3431 4.82823e-08 15 1.34315 15 3L21 3ZM18 403L35.3205 373L0.679515 373L18 403ZM15 13C15 14.6569 16.3431 16 18 16C19.6569 16 21 14.6569 21 13L15 13ZM21 33C21 31.3431 19.6569 30 18 30C16.3431 30 15 31.3431 15 33L21 33ZM15 53C15 54.6569 16.3431 56 18 56C19.6569 56 21 54.6569 21 53L15 53ZM21 73C21 71.3431 19.6569 70 18 70C16.3432 70 15 71.3431 15 73L21 73ZM15 93C15 94.6569 16.3432 96 18 96C19.6569 96 21 94.6569 21 93L15 93ZM21 113C21 111.343 19.6569 110 18 110C16.3432 110 15 111.343 15 113L21 113ZM15 133C15 134.657 16.3432 136 18 136C19.6569 136 21 134.657 21 133L15 133ZM21 153C21 151.343 19.6569 150 18 150C16.3432 150 15 151.343 15 153L21 153ZM15 173C15 174.657 16.3432 176 18 176C19.6569 176 21 174.657 21 173L15 173ZM21 193C21 191.343 19.6569 190 18 190C16.3432 190 15 191.343 15 193L21 193ZM15 213C15 214.657 16.3432 216 18 216C19.6569 216 21 214.657 21 213L15 213ZM21 233C21 231.343 19.6569 230 18 230C16.3432 230 15 231.343 15 233L21 233ZM15 253C15 254.657 16.3432 256 18 256C19.6569 256 21 254.657 21 253L15 253ZM21 273C21 271.343 19.6569 270 18 270C16.3432 270 15 271.343 15 273L21 273ZM15 293C15 294.657 16.3432 296 18 296C19.6569 296 21 294.657 21 293L15 293ZM21 313C21 311.343 19.6569 310 18 310C16.3432 310 15 311.343 15 313L21 313ZM15 333C15 334.657 16.3432 336 18 336C19.6569 336 21 334.657 21 333L15 333ZM21 353C21 351.343 19.6569 350 18 350C16.3432 350 15 351.343 15 353L21 353ZM15 373C15 374.657 16.3432 376 18 376C19.6569 376 21 374.657 21 373L15 373ZM21 393C21 391.343 19.6569 390 18 390C16.3432 390 15 391.343 15 393L21 393ZM15 3L15 13L21 13L21 3L15 3ZM15 33L15 53L21 53L21 33L15 33ZM15 73L15 93L21 93L21 73L15 73ZM15 113L15 133L21 133L21 113L15 113ZM15 153L15 173L21 173L21 153L15 153ZM15 193L15 213L21 213L21 193L15 193ZM15 233L15 253L21 253L21 233L15 233ZM15 273L15 293L21 293L21 273L15 273ZM15 313L15 333L21 333L21 313L15 313ZM15 353L15 373L21 373L21 353L15 353Z" fill="#BFBFBF"/>
</svg>
