<svg width="33" height="32" viewBox="0 0 33 32" fill="none" xmlns="http://www.w3.org/2000/svg">
<path d="M5.64931 0.25C3.02797 0.25 0.875 2.4202 0.875 5.0625V26.9375C0.875 29.5798 3.02797 31.75 5.64931 31.75H21.2743C23.8956 31.75 26.0486 29.5798 26.0486 26.9375C26.0511 26.7636 26.0192 26.5909 25.9548 26.4295C25.8905 26.2681 25.795 26.1212 25.6738 25.9974C25.5527 25.8735 25.4083 25.7751 25.2491 25.708C25.0899 25.6409 24.9191 25.6063 24.7465 25.6063C24.574 25.6063 24.4031 25.6409 24.2439 25.708C24.0848 25.7751 23.9404 25.8735 23.8192 25.9974C23.6981 26.1212 23.6026 26.2681 23.5382 26.4295C23.4739 26.5909 23.442 26.7636 23.4444 26.9375C23.4444 28.1609 22.488 29.125 21.2743 29.125H5.64931C4.43557 29.125 3.47917 28.1609 3.47917 26.9375V5.0625C3.47917 3.83905 4.43557 2.875 5.64931 2.875H21.2743C22.488 2.875 23.4444 3.83905 23.4444 5.0625C23.442 5.23642 23.4739 5.4091 23.5382 5.57049C23.6026 5.73189 23.6981 5.87879 23.8192 6.00265C23.9404 6.12651 24.0848 6.22486 24.2439 6.29199C24.4031 6.35912 24.574 6.39369 24.7465 6.39369C24.9191 6.39369 25.0899 6.35912 25.2491 6.29199C25.4083 6.22486 25.5527 6.12651 25.6738 6.00265C25.795 5.87879 25.8905 5.73189 25.9548 5.57049C26.0192 5.4091 26.0511 5.23642 26.0486 5.0625C26.0486 2.4202 23.8956 0.25 21.2743 0.25H5.64931ZM24.733 8.54883C24.4738 8.54889 24.2206 8.62688 24.0057 8.77283C23.7908 8.91877 23.624 9.12603 23.5266 9.36808C23.4292 9.61014 23.4056 9.87598 23.4589 10.1316C23.5123 10.3872 23.64 10.621 23.8259 10.803L27.6796 14.6875H9.12153C8.94899 14.685 8.77768 14.7172 8.61757 14.782C8.45745 14.8469 8.31172 14.9432 8.18884 15.0653C8.06597 15.1874 7.96839 15.3329 7.90179 15.4934C7.8352 15.6539 7.8009 15.8261 7.8009 16C7.8009 16.1739 7.8352 16.3461 7.90179 16.5066C7.96839 16.6671 8.06597 16.8126 8.18884 16.9347C8.31172 17.0568 8.45745 17.1531 8.61757 17.218C8.77768 17.2828 8.94899 17.315 9.12153 17.3125H27.6796L23.8259 21.197C23.701 21.318 23.6012 21.4628 23.5325 21.6231C23.4637 21.7834 23.4274 21.9559 23.4257 22.1305C23.4239 22.3051 23.4567 22.4784 23.5222 22.64C23.5877 22.8017 23.6845 22.9486 23.807 23.072C23.9295 23.1955 24.0752 23.2931 24.2356 23.3591C24.396 23.4251 24.5678 23.4582 24.741 23.4564C24.9143 23.4547 25.0854 23.4181 25.2444 23.3488C25.4034 23.2795 25.5472 23.1789 25.6671 23.053L31.7435 16.928C31.9876 16.6818 32.1247 16.348 32.1247 16C32.1247 15.652 31.9876 15.3182 31.7435 15.072L25.6671 8.94702C25.5458 8.82103 25.4006 8.72087 25.2401 8.65248C25.0796 8.58408 24.9072 8.54883 24.733 8.54883Z" fill="#B6B6B6"/>
</svg>
