<svg width="37" height="37" viewBox="0 0 37 37" fill="none" xmlns="http://www.w3.org/2000/svg">
<rect x="1" y="1" width="35" height="35" rx="5" fill="#DBA833"/>
<path d="M18.5 5.2998C11.2103 5.2998 5.30005 11.2101 5.30005 18.4998C5.30005 20.9761 5.99562 23.2849 7.18208 25.2652L5.41821 31.6998L11.9903 29.9746C13.9123 31.0674 16.1312 31.6998 18.5 31.6998C25.7897 31.6998 31.7001 25.7895 31.7001 18.4998C31.7001 11.2101 25.7897 5.2998 18.5 5.2998ZM13.9819 12.3424C14.1964 12.3424 14.4168 12.3411 14.6071 12.351C14.8425 12.3565 15.0987 12.3737 15.344 12.916C15.6355 13.5606 16.2702 15.1777 16.3516 15.3416C16.433 15.5055 16.4907 15.6986 16.3774 15.9131C16.2696 16.1331 16.2135 16.2662 16.0551 16.4609C15.8912 16.6501 15.7116 16.8851 15.5631 17.0281C15.3992 17.192 15.23 17.3717 15.4192 17.6984C15.6084 18.0251 16.2655 19.0961 17.2368 19.9607C18.4853 21.0761 19.5387 21.4189 19.8665 21.5828C20.1943 21.7467 20.3841 21.7212 20.5733 21.5012C20.768 21.2867 21.391 20.5507 21.611 20.2229C21.8255 19.8951 22.0445 19.9518 22.3415 20.0596C22.6429 20.1674 24.2502 20.9591 24.578 21.123C24.9058 21.2869 25.1207 21.3681 25.2032 21.5012C25.2879 21.6387 25.288 22.2932 25.0163 23.0566C24.7446 23.8189 23.4104 24.5561 22.812 24.6078C22.2081 24.6639 21.6445 24.8793 18.8868 23.7936C15.5604 22.4835 13.4626 19.0764 13.2987 18.8564C13.1348 18.6419 11.9667 17.0851 11.9667 15.4791C11.9667 13.8676 12.8116 13.0784 13.1075 12.7506C13.4089 12.4228 13.7619 12.3424 13.9819 12.3424Z" fill="black"/>
<rect x="1" y="1" width="35" height="35" rx="5" stroke="black" stroke-width="2"/>
</svg>
