<svg width="40" height="176" viewBox="0 0 40 176" fill="none" xmlns="http://www.w3.org/2000/svg">
<path d="M14 162.164L0.909089 162.164L0.909089 160.189L6.59801 160.189L6.59801 153.663L0.909088 153.663L0.909088 151.681L14 151.681L14 153.663L8.2919 153.663L8.2919 160.189L14 160.189L14 162.164ZM14.2173 146.101C14.2173 146.723 14.1023 147.286 13.8722 147.789C13.6378 148.291 13.299 148.69 12.8558 148.984C12.4126 149.274 11.8693 149.419 11.2258 149.419C10.6719 149.419 10.2159 149.312 9.85795 149.099C9.5 148.886 9.21662 148.598 9.00781 148.236C8.799 147.874 8.64133 147.469 8.5348 147.022C8.42826 146.574 8.3473 146.118 8.2919 145.654C8.22372 145.066 8.16832 144.588 8.12571 144.222C8.07883 143.855 8.00426 143.589 7.90199 143.423C7.79971 143.257 7.63352 143.174 7.40341 143.174L7.35866 143.174C6.80042 143.174 6.36789 143.331 6.06108 143.647C5.75426 143.958 5.60085 144.422 5.60085 145.04C5.60085 145.684 5.74361 146.191 6.02912 146.561C6.31037 146.928 6.62358 147.181 6.96875 147.322L6.55966 149.118C5.96307 148.905 5.48153 148.594 5.11505 148.185C4.74432 147.772 4.47585 147.296 4.30966 146.759C4.1392 146.223 4.05397 145.658 4.05397 145.066C4.05397 144.674 4.10085 144.258 4.1946 143.819C4.28409 143.376 4.45028 142.963 4.69318 142.579C4.93608 142.191 5.28338 141.874 5.73508 141.627C6.18253 141.38 6.7642 141.256 7.48011 141.256L14 141.256L14 143.122L12.6577 143.122L12.6577 143.199C12.9048 143.323 13.1477 143.508 13.3864 143.755C13.625 144.002 13.8232 144.32 13.9808 144.708C14.1385 145.095 14.2173 145.56 14.2173 146.101ZM12.6832 145.686C12.6832 145.157 12.5788 144.706 12.37 144.331C12.1612 143.951 11.8885 143.664 11.5518 143.468C11.2109 143.267 10.8466 143.167 10.4588 143.167L9.19318 143.167C9.26136 143.235 9.32528 143.367 9.38494 143.563C9.44034 143.755 9.48934 143.975 9.53196 144.222C9.57031 144.469 9.60653 144.71 9.64062 144.944C9.67045 145.179 9.69602 145.375 9.71733 145.532C9.7642 145.903 9.84304 146.242 9.95383 146.549C10.0646 146.851 10.2244 147.094 10.4332 147.277C10.6378 147.456 10.9105 147.546 11.2514 147.546C11.7244 147.546 12.0824 147.371 12.3253 147.022C12.5639 146.672 12.6832 146.227 12.6832 145.686ZM14 138.71L4.18181 138.71L4.18181 134.639C4.18181 133.531 4.41832 132.653 4.89133 132.005C5.36008 131.357 5.99716 131.033 6.80255 131.033C7.37784 131.033 7.8338 131.217 8.17045 131.583C8.5071 131.95 8.73295 132.435 8.84801 133.041C8.89914 132.602 9.03125 132.199 9.24431 131.832C9.45312 131.466 9.73437 131.172 10.0881 130.95C10.4418 130.725 10.8636 130.612 11.3537 130.612C11.8736 130.612 12.3338 130.746 12.7344 131.014C13.1307 131.283 13.4418 131.673 13.6676 132.184C13.8892 132.691 14 133.303 14 134.019L14 138.71ZM12.402 136.914L12.402 134.019C12.402 133.546 12.2891 133.175 12.0632 132.906C11.8374 132.638 11.5305 132.504 11.1428 132.504C10.6868 132.504 10.3288 132.638 10.0689 132.906C9.80468 133.175 9.67258 133.546 9.67258 134.019L9.67258 136.914L12.402 136.914ZM8.27272 136.914L8.27272 134.619C8.27272 134.261 8.22159 133.955 8.11931 133.699C8.01704 133.439 7.87216 133.241 7.68466 133.104C7.49289 132.964 7.26704 132.894 7.0071 132.894C6.62784 132.894 6.33167 133.049 6.1186 133.36C5.90554 133.671 5.799 134.097 5.799 134.639L5.799 136.914L8.27272 136.914ZM14.1981 124.283C14.1981 125.251 13.9915 126.084 13.5781 126.783C13.1605 127.477 12.5746 128.014 11.8203 128.394C11.0618 128.769 10.1733 128.956 9.15483 128.956C8.14914 128.956 7.26278 128.769 6.49573 128.394C5.72869 128.014 5.12997 127.486 4.69957 126.808C4.26917 126.127 4.05397 125.33 4.05397 124.418C4.05397 123.864 4.14559 123.327 4.32883 122.807C4.51207 122.287 4.79971 121.82 5.19176 121.407C5.5838 120.994 6.09304 120.668 6.71946 120.429C7.34162 120.19 8.09801 120.071 8.98863 120.071L9.66619 120.071L9.66619 127.876L8.23437 127.876L8.23437 121.944C7.73153 121.944 7.28622 122.046 6.89843 122.251C6.50639 122.455 6.19744 122.743 5.97159 123.114C5.74573 123.48 5.63281 123.911 5.63281 124.405C5.63281 124.942 5.76491 125.411 6.02912 125.811C6.28906 126.207 6.62997 126.514 7.05184 126.732C7.46946 126.945 7.92329 127.051 8.41335 127.051L9.53196 127.051C10.1882 127.051 10.7464 126.936 11.2067 126.706C11.6669 126.472 12.0185 126.146 12.2614 125.728C12.5 125.31 12.6193 124.823 12.6193 124.264C12.6193 123.902 12.5682 123.572 12.4659 123.274C12.3594 122.975 12.2017 122.717 11.9929 122.5C11.7841 122.283 11.5263 122.117 11.2195 122.002L11.5455 120.193C12.0781 120.337 12.5447 120.597 12.9453 120.972C13.3416 121.343 13.6506 121.81 13.8722 122.372C14.0895 122.93 14.1981 123.568 14.1981 124.283ZM16.8317 118.909L12.3445 118.909L12.3445 118.11C12.157 117.906 11.9332 117.733 11.6733 117.593C11.4133 117.448 11.1044 117.326 10.7464 117.228C10.3885 117.126 9.97088 117.041 9.4936 116.973C9.01207 116.904 8.46235 116.845 7.84446 116.794L4.18181 116.487L4.18181 109.813L12.3445 109.813L12.3445 108.305L16.8317 108.305L16.8317 110.171L14 110.171L14 117.017L16.8317 117.017L16.8317 118.909ZM12.3445 116.065L12.3445 111.68L5.81818 111.68L5.81818 114.774L7.84446 114.978C8.87571 115.076 9.77059 115.2 10.5291 115.349C11.2834 115.498 11.8885 115.737 12.3445 116.065ZM11.3217 104.564L4.18181 100.237L4.18181 98.1784L14 98.1784L14 100.051L6.85369 100.051L14 104.359L14 106.437L4.18181 106.437L4.18181 104.564L11.3217 104.564ZM5.83096 96.8264L4.18181 96.8264L4.18181 88.5423L5.83096 88.5423L5.83096 91.7448L14 91.7448L14 93.6112L5.83096 93.6112L5.83096 96.8264ZM14.1981 82.7464C14.1981 83.7137 13.9915 84.5468 13.5781 85.2456C13.1605 85.9403 12.5746 86.4772 11.8203 86.8564C11.0618 87.2314 10.1733 87.4189 9.15482 87.4189C8.14914 87.4189 7.26278 87.2314 6.49573 86.8564C5.72869 86.4772 5.12997 85.9488 4.69957 85.2712C4.26917 84.5894 4.05397 83.7925 4.05397 82.8806C4.05397 82.3266 4.14559 81.7897 4.32883 81.2698C4.51207 80.7499 4.79971 80.2833 5.19176 79.8699C5.5838 79.4566 6.09303 79.1306 6.71945 78.892C7.34161 78.6533 8.09801 78.534 8.98863 78.534L9.66619 78.534L9.66619 86.3387L8.23437 86.3387L8.23437 80.4069C7.73153 80.4069 7.28622 80.5091 6.89843 80.7137C6.50639 80.9182 6.19744 81.2059 5.97159 81.5766C5.74573 81.9431 5.63281 82.3735 5.63281 82.8678C5.63281 83.4047 5.76491 83.8735 6.02911 84.2741C6.28906 84.6704 6.62997 84.9772 7.05184 85.1945C7.46945 85.4076 7.92329 85.5141 8.41335 85.5141L9.53195 85.5141C10.1882 85.5141 10.7464 85.3991 11.2067 85.1689C11.6669 84.9346 12.0185 84.6086 12.2614 84.191C12.5 83.7733 12.6193 83.2854 12.6193 82.7272C12.6193 82.365 12.5682 82.0347 12.4659 81.7364C12.3594 81.4381 12.2017 81.1803 11.9929 80.963C11.7841 80.7456 11.5263 80.5795 11.2195 80.4644L11.5454 78.6555C12.0781 78.8003 12.5447 79.0603 12.9453 79.4353C13.3416 79.806 13.6506 80.2726 13.8722 80.8351C14.0895 81.3934 14.1981 82.0305 14.1981 82.7464ZM12.2102 73.9269L12.907 74.0228C13.4183 74.0867 13.951 74.1954 14.505 74.3488C15.0632 74.498 15.581 74.6535 16.0582 74.8154C16.5355 74.9731 16.9148 75.1031 17.196 75.2053L17.196 76.5605C16.9318 76.5051 16.5739 76.4284 16.1222 76.3303C15.6747 76.2323 15.174 76.1365 14.62 76.0427C14.066 75.949 13.5014 75.8786 12.9261 75.8318L12.2102 75.7678L12.2102 73.9269ZM4.18181 58.7938L14 58.7938L14 60.6602L4.18181 60.6602L4.18181 58.7938ZM8.73934 59.6056L10.3885 59.6056C10.5078 59.8996 10.6143 60.2107 10.7081 60.5388C10.7976 60.8669 10.8679 61.2121 10.919 61.5743C10.9702 61.9365 10.9957 62.3137 10.9957 62.7057C10.9957 63.9202 10.6996 64.8854 10.1072 65.6013C9.51065 66.3172 8.59872 66.6752 7.37144 66.6752L4.16264 66.6752L4.16264 64.8151L7.37144 64.8151C7.83593 64.8151 8.21306 64.7298 8.50283 64.5594C8.79261 64.3889 9.00568 64.146 9.14204 63.8307C9.2784 63.5154 9.34658 63.1404 9.34658 62.7057C9.34658 62.1304 9.29332 61.5999 9.18678 61.1141C9.07599 60.624 8.92684 60.1212 8.73934 59.6056ZM5.83096 57.469L4.18181 57.469L4.18181 49.1849L5.83096 49.1849L5.83096 52.3873L14 52.3873L14 54.2538L5.83096 54.2538L5.83096 57.469ZM14.1981 43.4848C14.1981 44.4053 13.9872 45.2085 13.5653 45.8946C13.1435 46.5807 12.5533 47.1134 11.7947 47.4926C11.0362 47.8719 10.1499 48.0615 9.13565 48.0615C8.11718 48.0615 7.22656 47.8719 6.46377 47.4926C5.70099 47.1134 5.10866 46.5807 4.68678 45.8946C4.26491 45.2085 4.05397 44.4053 4.05397 43.4848C4.05397 42.5644 4.26491 41.7611 4.68678 41.075C5.10866 40.3889 5.70099 39.8563 6.46377 39.477C7.22655 39.0977 8.11718 38.9081 9.13565 38.9081C10.1499 38.9081 11.0362 39.0977 11.7947 39.477C12.5533 39.8563 13.1435 40.3889 13.5653 41.075C13.9872 41.7611 14.1981 42.5644 14.1981 43.4848ZM12.5937 43.4784C12.5937 42.8818 12.4361 42.3875 12.1207 41.9955C11.8054 41.6034 11.3856 41.3137 10.8615 41.1262C10.3374 40.9344 9.75994 40.8385 9.12925 40.8385C8.50283 40.8385 7.92755 40.9344 7.4034 41.1262C6.87499 41.3137 6.45099 41.6034 6.13138 41.9955C5.81178 42.3875 5.65198 42.8818 5.65198 43.4784C5.65198 44.0793 5.81178 44.5779 6.13138 44.9742C6.45099 45.3662 6.87499 45.6581 7.4034 45.8499C7.92755 46.0374 8.50283 46.1311 9.12925 46.1311C9.75994 46.1311 10.3374 46.0374 10.8615 45.8499C11.3856 45.6581 11.8054 45.3662 12.1207 44.9742C12.4361 44.5779 12.5937 44.0793 12.5937 43.4784ZM0.52556 29.2002L1.73366 28.4076C2.00212 28.7016 2.19388 29.0361 2.30894 29.4111C2.41974 29.7819 2.49005 30.2101 2.51988 30.6959C2.54545 31.1817 2.56888 31.7378 2.59019 32.3643C2.6115 33.0716 2.76491 33.6533 3.05042 34.1093C3.33167 34.5653 3.74928 34.9168 4.30326 35.164C4.85298 35.4069 5.54332 35.5645 6.37428 35.637L6.37428 35.5155C5.76491 35.1959 5.30894 34.7528 5.00638 34.186C4.70383 33.615 4.55255 32.9736 4.55255 32.262C4.55255 31.4694 4.73366 30.7641 5.09587 30.1462C5.45809 29.5283 5.98863 29.0425 6.68749 28.6888C7.38209 28.3309 8.23224 28.1519 9.23792 28.1519C10.2564 28.1519 11.1364 28.3394 11.8778 28.7144C12.6193 29.0851 13.1925 29.6093 13.5973 30.2868C13.9979 30.9601 14.1981 31.7549 14.1981 32.6711C14.1981 33.5873 13.9915 34.3863 13.5781 35.0681C13.1605 35.7456 12.5426 36.2719 11.7244 36.6469C10.9062 37.0177 9.8963 37.203 8.6946 37.203L7.723 37.203C5.47727 37.203 3.78763 36.8025 2.65411 36.0013C1.52059 35.2002 0.938913 34.0028 0.909083 32.409C0.896299 31.8934 0.894168 31.4331 0.902691 31.0283C0.906952 30.6235 0.887776 30.2698 0.845163 29.9672C0.798288 29.6604 0.691753 29.4047 0.52556 29.2002ZM12.5937 32.6647C12.5937 32.132 12.4595 31.6739 12.191 31.2904C11.9183 30.9026 11.5327 30.6043 11.0341 30.3955C10.5355 30.1867 9.94744 30.0823 9.26988 30.0823C8.60511 30.0823 8.04048 30.1867 7.57599 30.3955C7.1115 30.6043 6.7578 30.9026 6.51491 31.2904C6.26775 31.6782 6.14417 32.1427 6.14417 32.6839C6.14417 33.0844 6.21448 33.4424 6.35511 33.7577C6.49147 34.0731 6.69388 34.3437 6.96235 34.5695C7.23082 34.7911 7.55894 34.9637 7.94673 35.0873C8.33025 35.2066 8.7713 35.2705 9.26988 35.279C10.2841 35.279 11.0916 35.0468 11.6925 34.5823C12.2933 34.1135 12.5937 33.4743 12.5937 32.6647ZM7.55681 24.5787L7.55681 21.7279C7.55681 20.5262 7.85511 19.6015 8.4517 18.9537C9.04829 18.306 9.81746 17.9822 10.7592 17.9822C11.3729 17.9822 11.9247 18.127 12.4148 18.4168C12.9048 18.7066 13.2926 19.1306 13.5781 19.6888C13.8594 20.2471 14 20.9268 14 21.7279L14 26.017L4.18181 26.017L4.18181 24.1441L12.3508 24.1441L12.3508 21.7279C12.3508 21.1782 12.2081 20.7265 11.9226 20.3728C11.6328 20.0191 11.2642 19.8422 10.8168 19.8422C10.3437 19.8422 9.95809 20.0191 9.65979 20.3728C9.35724 20.7265 9.20596 21.1782 9.20596 21.7279L9.20596 24.5787L7.55681 24.5787ZM14 16.5887L4.18181 16.5887L4.18181 14.6775L14 14.6775L14 16.5887ZM36 175.958L26.1818 175.958L26.1818 167.949L36 167.949L36 169.822L27.831 169.822L27.831 174.098L36 174.098L36 175.958ZM36.1982 161.258C36.1982 162.179 35.9872 162.982 35.5653 163.668C35.1435 164.354 34.5533 164.887 33.7947 165.266C33.0362 165.645 32.1499 165.835 31.1357 165.835C30.1172 165.835 29.2266 165.645 28.4638 165.266C27.701 164.887 27.1087 164.354 26.6868 163.668C26.2649 162.982 26.054 162.179 26.054 161.258C26.054 160.338 26.2649 159.535 26.6868 158.848C27.1087 158.162 27.701 157.63 28.4638 157.25C29.2266 156.871 30.1172 156.682 31.1357 156.682C32.1499 156.682 33.0362 156.871 33.7947 157.25C34.5533 157.63 35.1435 158.162 35.5653 158.848C35.9872 159.535 36.1982 160.338 36.1982 161.258ZM34.5937 161.252C34.5937 160.655 34.4361 160.161 34.1207 159.769C33.8054 159.377 33.3857 159.087 32.8615 158.9C32.3374 158.708 31.7599 158.612 31.1293 158.612C30.5028 158.612 29.9276 158.708 29.4034 158.9C28.875 159.087 28.451 159.377 28.1314 159.769C27.8118 160.161 27.652 160.655 27.652 161.252C27.652 161.853 27.8118 162.351 28.1314 162.748C28.451 163.14 28.875 163.432 29.4034 163.623C29.9276 163.811 30.5028 163.905 31.1293 163.905C31.7599 163.905 32.3374 163.811 32.8615 163.623C33.3857 163.432 33.8054 163.14 34.1207 162.748C34.4361 162.351 34.5937 161.853 34.5937 161.252ZM36.1982 150.413C36.1982 151.363 35.983 152.181 35.5526 152.867C35.1179 153.549 34.5192 154.073 33.7564 154.44C32.9936 154.806 32.12 154.989 31.1357 154.989C30.1385 154.989 29.2585 154.802 28.4957 154.427C27.7287 154.052 27.13 153.523 26.6996 152.842C26.2692 152.16 26.054 151.356 26.054 150.432C26.054 149.686 26.1925 149.021 26.4695 148.437C26.7422 147.854 27.1257 147.383 27.62 147.025C28.1143 146.663 28.6918 146.447 29.3523 146.379L29.3523 148.239C28.892 148.342 28.4957 148.576 28.1633 148.942C27.831 149.305 27.6648 149.79 27.6648 150.4C27.6648 150.932 27.8054 151.399 28.0866 151.8C28.3636 152.196 28.7599 152.505 29.2756 152.726C29.7869 152.948 30.392 153.059 31.0909 153.059C31.8068 153.059 32.4247 152.95 32.9446 152.733C33.4645 152.516 33.8672 152.209 34.1527 151.812C34.4382 151.412 34.581 150.941 34.581 150.4C34.581 150.038 34.5149 149.709 34.3828 149.415C34.2464 149.117 34.0526 148.868 33.8011 148.668C33.5497 148.463 33.2472 148.32 32.8935 148.239L32.8935 146.379C33.5284 146.447 34.0952 146.654 34.5937 146.999C35.0923 147.344 35.4844 147.807 35.7699 148.386C36.0554 148.962 36.1982 149.637 36.1982 150.413ZM33.6349 138.825L26.1818 135.655L26.1818 134.006L36 138.116L36 139.535L26.1818 143.562L26.1818 141.932L33.6349 138.825ZM26.1818 142.462L36 142.462L36 144.335L26.1818 144.335L26.1818 142.462ZM36 135.137L26.1818 135.137L26.1818 133.277L36 133.277L36 135.137ZM36.1981 126.594C36.1982 127.515 35.9872 128.318 35.5653 129.004C35.1435 129.69 34.5533 130.223 33.7947 130.602C33.0362 130.981 32.1499 131.171 31.1356 131.171C30.1172 131.171 29.2266 130.981 28.4638 130.602C27.701 130.223 27.1087 129.69 26.6868 129.004C26.2649 128.318 26.054 127.515 26.054 126.594C26.054 125.674 26.2649 124.87 26.6868 124.184C27.1087 123.498 27.701 122.966 28.4638 122.586C29.2266 122.207 30.1172 122.017 31.1356 122.017C32.1499 122.017 33.0362 122.207 33.7947 122.586C34.5533 122.966 35.1435 123.498 35.5653 124.184C35.9872 124.87 36.1981 125.674 36.1981 126.594ZM34.5937 126.588C34.5937 125.991 34.4361 125.497 34.1207 125.105C33.8054 124.713 33.3856 124.423 32.8615 124.236C32.3374 124.044 31.7599 123.948 31.1293 123.948C30.5028 123.948 29.9276 124.044 29.4034 124.236C28.875 124.423 28.451 124.713 28.1314 125.105C27.8118 125.497 27.652 125.991 27.652 126.588C27.652 127.189 27.8118 127.687 28.1314 128.084C28.451 128.476 28.875 128.767 29.4034 128.959C29.9276 129.147 30.5028 129.24 31.1293 129.24C31.7599 129.24 32.3374 129.147 32.8615 128.959C33.3856 128.767 33.8054 128.476 34.1207 128.084C34.4361 127.687 34.5937 127.189 34.5937 126.588ZM27.831 121.067L26.1818 121.067L26.1818 112.783L27.831 112.783L27.831 115.985L36 115.985L36 117.851L27.831 117.851L27.831 121.067ZM39.6818 110.761L26.1818 110.761L26.1818 108.895L27.7734 108.895L27.7734 108.735C27.5689 108.624 27.3324 108.464 27.0639 108.255C26.7954 108.047 26.5611 107.757 26.3608 107.386C26.1562 107.015 26.054 106.525 26.054 105.916C26.054 105.123 26.2543 104.416 26.6548 103.794C27.0554 103.172 27.6328 102.684 28.3871 102.33C29.1413 101.972 30.049 101.793 31.1101 101.793C32.1712 101.793 33.081 101.97 33.8395 102.324C34.5937 102.677 35.1754 103.163 35.5845 103.781C35.9893 104.399 36.1918 105.104 36.1918 105.897C36.1918 106.493 36.0916 106.981 35.8913 107.361C35.691 107.736 35.4567 108.03 35.1882 108.243C34.9197 108.456 34.6811 108.62 34.4723 108.735L34.4723 108.85L39.6818 108.85L39.6818 110.761ZM31.0909 108.888C31.7812 108.888 32.3864 108.788 32.9062 108.588C33.4261 108.388 33.8331 108.098 34.1271 107.718C34.4169 107.339 34.5618 106.875 34.5618 106.325C34.5618 105.754 34.4105 105.277 34.108 104.893C33.8011 104.51 33.3856 104.22 32.8615 104.024C32.3374 103.824 31.7472 103.723 31.0909 103.723C30.4432 103.723 29.8615 103.821 29.3459 104.017C28.8303 104.209 28.4233 104.499 28.125 104.887C27.8267 105.27 27.6776 105.75 27.6776 106.325C27.6776 106.879 27.8203 107.348 28.1058 107.731C28.3913 108.111 28.7898 108.398 29.3011 108.594C29.8125 108.79 30.4091 108.888 31.0909 108.888ZM36.1981 95.4202C36.1981 96.3875 35.9915 97.2206 35.5781 97.9195C35.1605 98.6141 34.5746 99.151 33.8203 99.5303C33.0618 99.9053 32.1733 100.093 31.1548 100.093C30.1491 100.093 29.2628 99.9053 28.4957 99.5303C27.7287 99.151 27.13 98.6226 26.6996 97.945C26.2692 97.2632 26.054 96.4664 26.054 95.5544C26.054 95.0004 26.1456 94.4635 26.3288 93.9436C26.5121 93.4237 26.7997 92.9571 27.1918 92.5438C27.5838 92.1304 28.093 91.8044 28.7195 91.5658C29.3416 91.3271 30.098 91.2078 30.9886 91.2078L31.6662 91.2078L31.6662 99.0125L30.2344 99.0125L30.2344 93.0807C29.7315 93.0807 29.2862 93.183 28.8984 93.3875C28.5064 93.5921 28.1974 93.8797 27.9716 94.2504C27.7457 94.6169 27.6328 95.0473 27.6328 95.5416C27.6328 96.0786 27.7649 96.5473 28.0291 96.9479C28.2891 97.3442 28.63 97.651 29.0518 97.8683C29.4695 98.0814 29.9233 98.1879 30.4133 98.1879L31.532 98.1879C32.1882 98.1879 32.7464 98.0729 33.2067 97.8428C33.6669 97.6084 34.0185 97.2824 34.2614 96.8648C34.5 96.4472 34.6193 95.9592 34.6193 95.401C34.6193 95.0388 34.5682 94.7085 34.4659 94.4102C34.3594 94.1119 34.2017 93.8541 33.9929 93.6368C33.7841 93.4195 33.5263 93.2533 33.2195 93.1382L33.5454 91.3293C34.0781 91.4742 34.5447 91.7341 34.9453 92.1091C35.3416 92.4798 35.6506 92.9465 35.8722 93.509C36.0895 94.0672 36.1981 94.7043 36.1981 95.4202ZM27.831 89.9534L26.1818 89.9534L26.1818 81.6693L27.831 81.6693L27.831 84.8717L36 84.8717L36 86.7382L27.831 86.7382L27.831 89.9534ZM29.5568 78.2096L29.5568 75.3588C29.5568 74.157 29.8551 73.2323 30.4517 72.5846C31.0483 71.9369 31.8175 71.613 32.7592 71.613C33.3729 71.613 33.9247 71.7579 34.4148 72.0477C34.9048 72.3374 35.2926 72.7615 35.5781 73.3197C35.8594 73.8779 36 74.5576 36 75.3588L36 79.6478L26.1818 79.6478L26.1818 77.7749L34.3508 77.7749L34.3508 75.3588C34.3508 74.809 34.2081 74.3573 33.9226 74.0036C33.6328 73.6499 33.2642 73.4731 32.8168 73.4731C32.3437 73.4731 31.9581 73.6499 31.6598 74.0036C31.3572 74.3573 31.206 74.809 31.206 75.3588L31.206 78.2096L29.5568 78.2096ZM36 64.7064L26.1818 64.7064L26.1818 56.6972L36 56.6972L36 58.57L27.831 58.57L27.831 62.8463L36 62.8463L36 64.7064ZM33.3217 52.2691L26.1818 47.9417L26.1818 45.8834L36 45.8834L36 47.7563L28.8537 47.7563L36 52.0645L36 54.142L26.1818 54.142L26.1818 52.2691L33.3217 52.2691ZM36.1981 39.1782C36.1981 40.1285 35.9829 40.9466 35.5525 41.6327C35.1179 42.3145 34.5192 42.8387 33.7564 43.2052C32.9936 43.5716 32.12 43.7549 31.1356 43.7549C30.1385 43.7549 29.2585 43.5674 28.4957 43.1924C27.7287 42.8174 27.13 42.289 26.6996 41.6072C26.2692 40.9253 26.054 40.1221 26.054 39.1974C26.054 38.4516 26.1925 37.7868 26.4695 37.203C26.7422 36.6192 27.1257 36.1483 27.62 35.7904C28.1143 35.4282 28.6918 35.213 29.3523 35.1448L29.3523 37.0049C28.892 37.1072 28.4957 37.3415 28.1633 37.708C27.831 38.0702 27.6648 38.556 27.6648 39.1654C27.6648 39.6981 27.8054 40.1647 28.0866 40.5653C28.3636 40.9616 28.7599 41.2705 29.2756 41.4921C29.7869 41.7137 30.392 41.8245 31.0909 41.8245C31.8068 41.8245 32.4247 41.7158 32.9446 41.4985C33.4645 41.2812 33.8672 40.9743 34.1527 40.578C34.4382 40.1775 34.581 39.7066 34.581 39.1654C34.581 38.8032 34.5149 38.4751 34.3828 38.181C34.2464 37.8827 34.0525 37.6334 33.8011 37.4331C33.5497 37.2286 33.2472 37.0858 32.8935 37.0049L32.8935 35.1448C33.5284 35.213 34.0952 35.4197 34.5937 35.7648C35.0923 36.11 35.4844 36.5724 35.7699 37.1519C36.0554 37.7272 36.1981 38.4026 36.1981 39.1782ZM29.5568 31.6627L29.5568 28.8119C29.5568 27.6102 29.8551 26.6855 30.4517 26.0377C31.0483 25.39 31.8175 25.0661 32.7592 25.0661C33.3729 25.0661 33.9247 25.211 34.4148 25.5008C34.9048 25.7906 35.2926 26.2146 35.5781 26.7728C35.8594 27.3311 36 28.0107 36 28.8119L36 33.1009L26.1818 33.1009L26.1818 31.2281L34.3508 31.2281L34.3508 28.8119C34.3508 28.2622 34.2081 27.8105 33.9226 27.4568C33.6328 27.1031 33.2642 26.9262 32.8168 26.9262C32.3437 26.9262 31.9581 27.1031 31.6598 27.4568C31.3572 27.8105 31.206 28.2622 31.206 28.8119L31.206 31.6627L29.5568 31.6627ZM33.6349 17.4133L26.1818 14.2428L26.1818 12.5937L36 16.7037L36 18.1228L26.1818 22.1498L26.1818 20.5198L33.6349 17.4133ZM26.1818 21.0503L36 21.0503L36 22.9232L26.1818 22.9232L26.1818 21.0503ZM36 13.7251L26.1818 13.7251L26.1818 11.865L36 11.865L36 13.7251ZM36.1981 5.18208C36.1981 6.10254 35.9872 6.9058 35.5653 7.59188C35.1435 8.27796 34.5533 8.81063 33.7947 9.1899C33.0362 9.56916 32.1498 9.75879 31.1356 9.75879C30.1172 9.75879 29.2266 9.56916 28.4638 9.1899C27.701 8.81063 27.1087 8.27796 26.6868 7.59188C26.2649 6.9058 26.054 6.10254 26.054 5.18208C26.054 4.26163 26.2649 3.45836 26.6868 2.77228C27.1087 2.0862 27.701 1.55353 28.4638 1.17427C29.2266 0.795009 30.1172 0.605378 31.1356 0.605378C32.1498 0.605378 33.0362 0.795009 33.7947 1.17427C34.5533 1.55353 35.1435 2.0862 35.5653 2.77228C35.9872 3.45836 36.1981 4.26163 36.1981 5.18208ZM34.5937 5.17569C34.5937 4.5791 34.4361 4.08478 34.1207 3.69274C33.8054 3.30069 33.3856 3.01092 32.8615 2.82342C32.3373 2.63166 31.7599 2.53578 31.1293 2.53578C30.5028 2.53578 29.9275 2.63166 29.4034 2.82342C28.875 3.01092 28.451 3.30069 28.1314 3.69274C27.8118 4.08478 27.652 4.5791 27.652 5.17569C27.652 5.77654 27.8118 6.27512 28.1314 6.67143C28.451 7.06348 28.875 7.35538 29.4034 7.54714C29.9275 7.73464 30.5028 7.82839 31.1293 7.82839C31.7599 7.82839 32.3373 7.73464 32.8615 7.54714C33.3856 7.35538 33.8054 7.06347 34.1207 6.67143C34.4361 6.27512 34.5937 5.77654 34.5937 5.17569Z" fill="#B6B6B6"/>
</svg>
